<svg width="812" height="164" viewBox="0 0 812 164" fill="none" xmlns="http://www.w3.org/2000/svg">
<path d="M638.1 163.1C628.8 163.1 620.5 160.8 613.3 156.1C606 151.5 600.4 144.7 596.4 135.7C592.4 126.8 590.3 115.9 590.3 103.1V98.5C590.3 85.7 592.3 74.7999 596.4 65.8999C600.4 56.9999 606.1 50.2 613.3 45.5C620.5 40.9 628.8 38.5 638.1 38.5C646.8 38.5 654.2 40.2 660.4 43.5C666.6 46.9 671.6 51.3999 675.4 57.1999V0.199951H698.7V160.4H675.4V144.4C671.6 150.2 666.6 154.8 660.4 158.1C654.2 161.4 646.8 163.1 638.1 163.1ZM643.8 142.3C648.1 142.3 652.2 141.5 656 140C659.9 138.5 663.8 135.8 667.8 132C670.4 129.7 672.4 127 673.7 123.9C675.1 120.8 675.8 116.8 675.8 111.9V89.8999C675.8 85.1999 675.1 81.2 673.7 78C672.3 74.8 670.3 72.1 667.8 69.8C663.8 65.8 659.9 63.0999 656 61.6999C652.1 60.2999 648 59.5 643.8 59.5C637.9 59.5 632.6 60.8 628 63.3C623.4 65.8 619.8 70 617.2 75.8C614.6 81.6 613.3 89.2999 613.3 98.8999V103C613.3 112.6 614.6 120.3 617.2 126.1C619.8 131.9 623.4 136.1 628 138.6C632.6 141 637.8 142.3 643.8 142.3Z" fill="white"/>
<path d="M53.4 160.4V23.0999H0.5V0.199951H130.7V23.0999H77.8V160.4H53.4Z" fill="white"/>
<path d="M149.1 160.4V0.199951H172.2V58.8C175.6 52.5 180.2 47.6 186.2 44C192.1 40.4 199.5 38.5999 208.2 38.5999C221.5 38.5999 231.3 42.4 237.7 49.9C244.1 57.4 247.3 67.3 247.3 79.5V160.3H224.2V81.3C224.2 74.3 222.3 68.8 218.4 64.8C214.5 60.8 209.1 58.9 202.3 58.9C197.6 58.9 193.3 59.7 189.6 61.3C185.9 62.9 182.6 65.4 179.9 68.7C177.5 71.4 175.6 74.5 174.3 78C173 81.4 172.4 85.7 172.4 90.7V160.3L149.1 160.4Z" fill="white"/>
<path d="M345.9 41.2999C341.2 39.4999 335.8 38.5999 329.6 38.5999C321.5 38.5999 314.3 40.3999 308.1 43.9999C301.8 47.5999 297.2 52.6999 294.1 59.1999V41.3999H270.8V160.4H294.1V92.1999C294.1 86.5999 294.7 81.8999 296 78.3999C297.3 74.7999 299.3 71.5999 302.1 68.6999C304.7 65.7999 307.8 63.4999 311.5 61.6999C315.2 59.8999 319.3 59.0999 323.9 59.0999C329.3 59.0999 333.8 60.5999 337.2 63.3999L345.9 41.2999Z" fill="white"/>
<path d="M419.2 138.3C414.2 141.3 407.9 142.8 400.3 142.8C390.1 142.8 382.1 139.3 376.4 132.4C370.9 125.7 368 116.3 367.8 104.4H452.7V94.8C452.7 84.6 450.8 75.2 447.1 66.8C443.4 58.3 437.5 51.5 429.6 46.4C421.7 41.3 411.6 38.7 399.4 38.7C388.9 38.7 379.5 41.3 371.3 46.6C363.1 51.9 356.6 59 352 68.1C347.3 77.2 345 87.4 345 98.7V103.3C345 115.5 347.3 126.1 352 135.1C356.7 144.1 363.1 151 371.3 155.9C379.5 160.8 389.1 163.2 399.9 163.2C412.7 163.2 423.4 160.5 432.1 155.2C440.7 149.9 447 142.3 451 132.5L430.9 124.5C428 130.7 424.1 135.3 419.2 138.3ZM376.7 67.9C382.6 61.3 390.2 58.1 399.4 58.1C409.3 58.1 416.7 60.7 421.6 65.9C426.5 71.1 429.2 78.1 429.8 87H368.4C369.6 79 372.4 72.7 376.7 67.9Z" fill="white"/>
<path d="M579.5 160.4C579.5 145.8 577.2 133.2 572.5 122.6C569.8 116.5 566.2 111.2 561.8 106.7C561.8 105.6 561.9 104.5 561.9 103.4V85.1C561.9 70.4 557.8 59 549.7 50.9C541.5 42.7 530.4 38.7 516.4 38.7C503.9 38.7 493.7 41.4 485.7 46.9C478 52.2 472.8 58.8 470.2 66.5L489.9 74.3C491.7 69.1 494.8 65.1 499.1 62.4C503.4 59.7 508.9 58.3 515.6 58.3C522.9 58.3 528.7 60.2 532.9 64.1C537.1 68 539.2 74.3 539.2 83V93C531.8 90.7 523.4 89.6 514 89.6C504.6 89.6 496.6 91.1 489.7 94.1C482.8 97.1 477.5 101.3 473.8 106.8C470.1 112.3 468.2 118.7 468.2 126C468.2 133.3 469.7 139.3 472.8 144.9C475.8 150.5 480.5 154.9 486.6 158.2C492.8 161.5 500.4 163.1 509.6 163.1C520.3 163.1 529.5 160.5 537.3 155.3C544.9 150.3 550.8 143.4 555.1 134.7C557.4 142.2 558.6 150.7 558.8 160.3L579.5 160.4ZM532.6 134.5C528.3 140.8 521.4 143.9 511.8 143.9C504.8 143.9 499.5 142.2 495.9 138.9C492.3 135.5 490.5 131.3 490.5 126.1C490.5 120.9 492.4 116.6 496.3 112.8C500.2 109 506.3 107.1 514.5 107.1C524.6 107.1 532.8 109 538.9 112.8C538.5 121.7 536.4 128.9 532.6 134.5Z" fill="white"/>
<path d="M794.9 96.8C789.3 94.4 782.9 92.6 775.6 91.5L763 89.3999C755.8 88.2999 750.3 86.5 746.4 83.9C742.5 81.3 740.6 77.8 740.6 73.4C740.6 68.7 743 64.9 747.8 62.1C752.6 59.3 758.1 57.9 764.4 57.9C770.7 57.9 775.5 59.1 779.7 61.6C783.7 63.9 786.7 67.4 788.7 72.1L807.9 63.9C804.8 55.7 799.8 49.4 792.7 45.1C785.6 40.8 776.2 38.7 764.4 38.7C756.2 38.7 748.6 40.1 741.6 42.9C734.7 45.7 729.2 49.7 725.1 54.9C721.1 60.1 719 66.2 719 73.2C719 83.3 722.3 91.2 728.8 97.1C735.3 103 743.7 106.7 753.7 108.2L766.3 110.3C773.3 111.4 778.9 113 783.1 115.1C787.3 117.2 789.4 120.9 789.4 126.1C789.4 131.6 787.1 135.9 782.6 138.9C778.1 142 771.9 143.5 763.9 143.5C756.9 143.5 751 141.8 746.4 138.4C741.7 135 738.4 130.4 736.4 124.6L715.5 133.6C718.5 142.1 723.8 149.2 731.5 154.7C739.5 160.4 750.5 163.3 764.3 163.3C773.9 163.3 782.2 161.7 789.2 158.4C796.2 155.1 801.7 150.6 805.7 144.9C809.7 139.2 811.6 132.6 811.6 125.1C811.6 117.6 810.1 112.1 807.2 107.5C804.7 102.7 800.5 99.2 794.9 96.8Z" fill="white"/>
</svg>
